<?xml version="1.0" encoding="UTF-8" standalone="no"?>
<!DOCTYPE svg PUBLIC "-//W3C//DTD SVG 1.1//EN"
 "http://www.w3.org/Graphics/SVG/1.1/DTD/svg11.dtd">
<!-- Generated by graphviz version 15.0.0 (20260523.1842)
 -->
<!-- Title: G Pages: 1 -->
<svg width="1004pt" height="736pt"
 viewBox="0.00 0.00 1004.00 736.00" xmlns="http://www.w3.org/2000/svg" xmlns:xlink="http://www.w3.org/1999/xlink">
<g id="graph0" class="graph" transform="scale(1 1) rotate(0) translate(21.6 714.39)">
<title>G</title>
<polygon fill="#111111" stroke="none" points="-21.6,21.6 -21.6,-714.39 982.6,-714.39 982.6,21.6 -21.6,21.6"/>
<!-- ../src/components/budget&#45;target.tsx -->
<g id="node1" class="node">
<title>../src/components/budget&#45;target.tsx</title>
<path fill="none" stroke="#c6c5fe" d="M426.83,-448.79C426.83,-448.79 214.42,-448.79 214.42,-448.79 210.46,-448.79 206.5,-444.83 206.5,-440.87 206.5,-440.87 206.5,-432.95 206.5,-432.95 206.5,-429 210.46,-425.04 214.42,-425.04 214.42,-425.04 426.83,-425.04 426.83,-425.04 430.79,-425.04 434.75,-429 434.75,-432.95 434.75,-432.95 434.75,-440.87 434.75,-440.87 434.75,-444.83 430.79,-448.79 426.83,-448.79"/>
<text xml:space="preserve" text-anchor="middle" x="320.62" y="-431.49" font-family="Arial" font-size="14.00" fill="#c6c5fe">../src/components/budget&#45;target.tsx</text>
</g>
<!-- ../src/lib/supabase.ts -->
<g id="node2" class="node">
<title>../src/lib/supabase.ts</title>
<path fill="none" stroke="#c6c5fe" d="M676.46,-305.79C676.46,-305.79 553.29,-305.79 553.29,-305.79 549.33,-305.79 545.38,-301.83 545.38,-297.87 545.38,-297.87 545.38,-289.95 545.38,-289.95 545.38,-286 549.33,-282.04 553.29,-282.04 553.29,-282.04 676.46,-282.04 676.46,-282.04 680.42,-282.04 684.38,-286 684.38,-289.95 684.38,-289.95 684.38,-297.87 684.38,-297.87 684.38,-301.83 680.42,-305.79 676.46,-305.79"/>
<text xml:space="preserve" text-anchor="middle" x="614.88" y="-288.49" font-family="Arial" font-size="14.00" fill="#c6c5fe">../src/lib/supabase.ts</text>
</g>
<!-- ../src/components/budget&#45;target.tsx&#45;&gt;../src/lib/supabase.ts -->
<g id="edge1" class="edge">
<title>../src/components/budget&#45;target.tsx&#45;&gt;../src/lib/supabase.ts</title>
<path fill="none" stroke="#757575" d="M434.74,-424.64C443.27,-422.22 451.62,-419.34 459.5,-415.91 515.19,-391.71 567.98,-342.29 595.04,-314.35"/>
<polygon fill="#757575" stroke="#757575" points="597.49,-316.85 601.85,-307.19 592.42,-312.02 597.49,-316.85"/>
</g>
<!-- ../src/types/database.types.ts -->
<g id="node3" class="node">
<title>../src/types/database.types.ts</title>
<path fill="none" stroke="#cfffac" d="M953.08,-406.79C953.08,-406.79 778.17,-406.79 778.17,-406.79 774.21,-406.79 770.25,-402.83 770.25,-398.87 770.25,-398.87 770.25,-390.95 770.25,-390.95 770.25,-387 774.21,-383.04 778.17,-383.04 778.17,-383.04 953.08,-383.04 953.08,-383.04 957.04,-383.04 961,-387 961,-390.95 961,-390.95 961,-398.87 961,-398.87 961,-402.83 957.04,-406.79 953.08,-406.79"/>
<text xml:space="preserve" text-anchor="middle" x="865.62" y="-389.49" font-family="Arial" font-size="14.00" fill="#cfffac">../src/types/database.types.ts</text>
</g>
<!-- ../src/components/budget&#45;target.tsx&#45;&gt;../src/types/database.types.ts -->
<g id="edge2" class="edge">
<title>../src/components/budget&#45;target.tsx&#45;&gt;../src/types/database.types.ts</title>
<path fill="none" stroke="#757575" d="M435.12,-430.41C518.06,-425.37 633.22,-417.76 734.25,-408.91 742.2,-408.22 750.42,-407.45 758.68,-406.64"/>
<polygon fill="#757575" stroke="#757575" points="758.85,-410.14 768.45,-405.67 758.16,-403.18 758.85,-410.14"/>
</g>
<!-- ../src/lib/supabase.ts&#45;&gt;../src/types/database.types.ts -->
<g id="edge15" class="edge">
<title>../src/lib/supabase.ts&#45;&gt;../src/types/database.types.ts</title>
<path fill="none" stroke="#757575" d="M645.88,-306.09C690.42,-324.18 774.14,-358.17 824.09,-378.45"/>
<polygon fill="#757575" stroke="#757575" points="822.53,-381.6 833.11,-382.12 825.16,-375.11 822.53,-381.6"/>
</g>
<!-- ../src/components/category&#45;visualization.tsx -->
<g id="node4" class="node">
<title>../src/components/category&#45;visualization.tsx</title>
<path fill="none" stroke="#c6c5fe" d="M451.58,-162.79C451.58,-162.79 189.67,-162.79 189.67,-162.79 185.71,-162.79 181.75,-158.83 181.75,-154.87 181.75,-154.87 181.75,-146.95 181.75,-146.95 181.75,-143 185.71,-139.04 189.67,-139.04 189.67,-139.04 451.58,-139.04 451.58,-139.04 455.54,-139.04 459.5,-143 459.5,-146.95 459.5,-146.95 459.5,-154.87 459.5,-154.87 459.5,-158.83 455.54,-162.79 451.58,-162.79"/>
<text xml:space="preserve" text-anchor="middle" x="320.62" y="-145.49" font-family="Arial" font-size="14.00" fill="#c6c5fe">../src/components/category&#45;visualization.tsx</text>
</g>
<!-- ../src/components/category&#45;visualization.tsx&#45;&gt;../src/lib/supabase.ts -->
<g id="edge3" class="edge">
<title>../src/components/category&#45;visualization.tsx&#45;&gt;../src/lib/supabase.ts</title>
<path fill="none" stroke="#757575" d="M434.74,-163.19C443.27,-165.61 451.62,-168.49 459.5,-171.91 515.19,-196.12 567.98,-245.53 595.04,-273.47"/>
<polygon fill="#757575" stroke="#757575" points="592.42,-275.8 601.85,-280.64 597.49,-270.98 592.42,-275.8"/>
</g>
<!-- ../src/components/category&#45;visualization.tsx&#45;&gt;../src/types/database.types.ts -->
<g id="edge4" class="edge">
<title>../src/components/category&#45;visualization.tsx&#45;&gt;../src/types/database.types.ts</title>
<path fill="none" stroke="#757575" d="M459.68,-139.25C544.67,-138.55 652.6,-149.87 734.25,-199.91 800.76,-240.67 840.73,-329.6 856.64,-371.8"/>
<polygon fill="#757575" stroke="#757575" points="853.35,-372.99 860.05,-381.19 859.93,-370.6 853.35,-372.99"/>
</g>
<!-- ../src/components/dashboard&#45;stats.tsx -->
<g id="node5" class="node">
<title>../src/components/dashboard&#45;stats.tsx</title>
<path fill="none" stroke="#c6c5fe" d="M435.08,-528.79C435.08,-528.79 206.17,-528.79 206.17,-528.79 202.21,-528.79 198.25,-524.83 198.25,-520.87 198.25,-520.87 198.25,-512.95 198.25,-512.95 198.25,-509 202.21,-505.04 206.17,-505.04 206.17,-505.04 435.08,-505.04 435.08,-505.04 439.04,-505.04 443,-509 443,-512.95 443,-512.95 443,-520.87 443,-520.87 443,-524.83 439.04,-528.79 435.08,-528.79"/>
<text xml:space="preserve" text-anchor="middle" x="320.62" y="-511.49" font-family="Arial" font-size="14.00" fill="#c6c5fe">../src/components/dashboard&#45;stats.tsx</text>
</g>
<!-- ../src/components/dashboard&#45;stats.tsx&#45;&gt;../src/lib/supabase.ts -->
<g id="edge6" class="edge">
<title>../src/components/dashboard&#45;stats.tsx&#45;&gt;../src/lib/supabase.ts</title>
<path fill="none" stroke="#757575" d="M361.88,-504.62C390.64,-494.7 429.41,-478.94 459.5,-457.91 518.72,-416.53 572.87,-349.45 598.42,-315.33"/>
<polygon fill="#757575" stroke="#757575" points="601.11,-317.58 604.23,-307.46 595.48,-313.43 601.11,-317.58"/>
</g>
<!-- ../src/components/dashboard&#45;stats.tsx&#45;&gt;../src/types/database.types.ts -->
<g id="edge7" class="edge">
<title>../src/components/dashboard&#45;stats.tsx&#45;&gt;../src/types/database.types.ts</title>
<path fill="none" stroke="#757575" d="M358.09,-529.28C432.53,-552.33 605.8,-594.62 734.25,-537.91 790.55,-513.06 833.03,-450.56 852.64,-417.01"/>
<polygon fill="#757575" stroke="#757575" points="855.56,-418.96 857.45,-408.54 849.47,-415.51 855.56,-418.96"/>
</g>
<!-- ../src/lib/financial&#45;metrics.ts -->
<g id="node6" class="node">
<title>../src/lib/financial&#45;metrics.ts</title>
<path fill="none" stroke="#c6c5fe" d="M696.33,-528.79C696.33,-528.79 533.42,-528.79 533.42,-528.79 529.46,-528.79 525.5,-524.83 525.5,-520.87 525.5,-520.87 525.5,-512.95 525.5,-512.95 525.5,-509 529.46,-505.04 533.42,-505.04 533.42,-505.04 696.33,-505.04 696.33,-505.04 700.29,-505.04 704.25,-509 704.25,-512.95 704.25,-512.95 704.25,-520.87 704.25,-520.87 704.25,-524.83 700.29,-528.79 696.33,-528.79"/>
<text xml:space="preserve" text-anchor="middle" x="614.88" y="-511.49" font-family="Arial" font-size="14.00" fill="#c6c5fe">../src/lib/financial&#45;metrics.ts</text>
</g>
<!-- ../src/components/dashboard&#45;stats.tsx&#45;&gt;../src/lib/financial&#45;metrics.ts -->
<g id="edge5" class="edge">
<title>../src/components/dashboard&#45;stats.tsx&#45;&gt;../src/lib/financial&#45;metrics.ts</title>
<path fill="none" stroke="#757575" d="M443.45,-516.91C466.9,-516.91 491.2,-516.91 513.86,-516.91"/>
<polygon fill="#757575" stroke="#757575" points="513.68,-520.41 523.68,-516.91 513.68,-513.41 513.68,-520.41"/>
</g>
<!-- ../src/lib/financial&#45;metrics.ts&#45;&gt;../src/types/database.types.ts -->
<g id="edge14" class="edge">
<title>../src/lib/financial&#45;metrics.ts&#45;&gt;../src/types/database.types.ts</title>
<path fill="none" stroke="#757575" d="M694.11,-504.6C707.82,-501.08 721.7,-496.6 734.25,-490.91 776.93,-471.57 819.31,-436.71 843.68,-414.75"/>
<polygon fill="#757575" stroke="#757575" points="845.99,-417.38 850.99,-408.04 841.25,-412.22 845.99,-417.38"/>
</g>
<!-- ../src/components/home&#45;dashboard.tsx -->
<g id="node7" class="node">
<title>../src/components/home&#45;dashboard.tsx</title>
<path fill="none" stroke="#c6c5fe" d="M438.08,-608.79C438.08,-608.79 203.17,-608.79 203.17,-608.79 199.21,-608.79 195.25,-604.83 195.25,-600.87 195.25,-600.87 195.25,-592.95 195.25,-592.95 195.25,-589 199.21,-585.04 203.17,-585.04 203.17,-585.04 438.08,-585.04 438.08,-585.04 442.04,-585.04 446,-589 446,-592.95 446,-592.95 446,-600.87 446,-600.87 446,-604.83 442.04,-608.79 438.08,-608.79"/>
<text xml:space="preserve" text-anchor="middle" x="320.62" y="-591.49" font-family="Arial" font-size="14.00" fill="#c6c5fe">../src/components/home&#45;dashboard.tsx</text>
</g>
<!-- ../src/components/voice&#45;ledger.tsx -->
<g id="node8" class="node">
<title>../src/components/voice&#45;ledger.tsx</title>
<path fill="none" stroke="#cfffac" d="M717.33,-608.79C717.33,-608.79 512.42,-608.79 512.42,-608.79 508.46,-608.79 504.5,-604.83 504.5,-600.87 504.5,-600.87 504.5,-592.95 504.5,-592.95 504.5,-589 508.46,-585.04 512.42,-585.04 512.42,-585.04 717.33,-585.04 717.33,-585.04 721.29,-585.04 725.25,-589 725.25,-592.95 725.25,-592.95 725.25,-600.87 725.25,-600.87 725.25,-604.83 721.29,-608.79 717.33,-608.79"/>
<text xml:space="preserve" text-anchor="middle" x="614.88" y="-591.49" font-family="Arial" font-size="14.00" fill="#cfffac">../src/components/voice&#45;ledger.tsx</text>
</g>
<!-- ../src/components/home&#45;dashboard.tsx&#45;&gt;../src/components/voice&#45;ledger.tsx -->
<g id="edge8" class="edge">
<title>../src/components/home&#45;dashboard.tsx&#45;&gt;../src/components/voice&#45;ledger.tsx</title>
<path fill="none" stroke="#757575" d="M446.41,-596.91C461.89,-596.91 477.7,-596.91 493.12,-596.91"/>
<polygon fill="#757575" stroke="#757575" points="492.75,-600.41 502.75,-596.91 492.75,-593.41 492.75,-600.41"/>
</g>
<!-- ../src/components/navbar.tsx -->
<g id="node9" class="node">
<title>../src/components/navbar.tsx</title>
<path fill="none" stroke="#c6c5fe" d="M406.96,-82.79C406.96,-82.79 234.29,-82.79 234.29,-82.79 230.33,-82.79 226.38,-78.83 226.38,-74.87 226.38,-74.87 226.38,-66.95 226.38,-66.95 226.38,-63 230.33,-59.04 234.29,-59.04 234.29,-59.04 406.96,-59.04 406.96,-59.04 410.92,-59.04 414.88,-63 414.88,-66.95 414.88,-66.95 414.88,-74.87 414.88,-74.87 414.88,-78.83 410.92,-82.79 406.96,-82.79"/>
<text xml:space="preserve" text-anchor="middle" x="320.62" y="-65.49" font-family="Arial" font-size="14.00" fill="#c6c5fe">../src/components/navbar.tsx</text>
</g>
<!-- ../src/components/navbar.tsx&#45;&gt;../src/lib/supabase.ts -->
<g id="edge10" class="edge">
<title>../src/components/navbar.tsx&#45;&gt;../src/lib/supabase.ts</title>
<path fill="none" stroke="#757575" d="M361.88,-83.2C390.64,-93.12 429.41,-108.88 459.5,-129.91 518.72,-171.3 572.87,-238.37 598.42,-272.5"/>
<polygon fill="#757575" stroke="#757575" points="595.48,-274.4 604.23,-280.36 601.11,-270.24 595.48,-274.4"/>
</g>
<!-- ../src/components/theme&#45;provider.tsx -->
<g id="node10" class="node">
<title>../src/components/theme&#45;provider.tsx</title>
<path fill="none" stroke="#cfffac" d="M726.33,-41.79C726.33,-41.79 503.42,-41.79 503.42,-41.79 499.46,-41.79 495.5,-37.83 495.5,-33.87 495.5,-33.87 495.5,-25.95 495.5,-25.95 495.5,-22 499.46,-18.04 503.42,-18.04 503.42,-18.04 726.33,-18.04 726.33,-18.04 730.29,-18.04 734.25,-22 734.25,-25.95 734.25,-25.95 734.25,-33.87 734.25,-33.87 734.25,-37.83 730.29,-41.79 726.33,-41.79"/>
<text xml:space="preserve" text-anchor="middle" x="614.88" y="-24.49" font-family="Arial" font-size="14.00" fill="#cfffac">../src/components/theme&#45;provider.tsx</text>
</g>
<!-- ../src/components/navbar.tsx&#45;&gt;../src/components/theme&#45;provider.tsx -->
<g id="edge9" class="edge">
<title>../src/components/navbar.tsx&#45;&gt;../src/components/theme&#45;provider.tsx</title>
<path fill="none" stroke="#757575" d="M409.71,-58.55C442.7,-53.93 480.41,-48.64 514.36,-43.87"/>
<polygon fill="#757575" stroke="#757575" points="514.81,-47.34 524.22,-42.49 513.83,-40.41 514.81,-47.34"/>
</g>
<!-- ../src/components/transaction&#45;history.tsx -->
<g id="node11" class="node">
<title>../src/components/transaction&#45;history.tsx</title>
<path fill="none" stroke="#c6c5fe" d="M441.46,-204.79C441.46,-204.79 199.79,-204.79 199.79,-204.79 195.83,-204.79 191.88,-200.83 191.88,-196.87 191.88,-196.87 191.88,-188.95 191.88,-188.95 191.88,-185 195.83,-181.04 199.79,-181.04 199.79,-181.04 441.46,-181.04 441.46,-181.04 445.42,-181.04 449.38,-185 449.38,-188.95 449.38,-188.95 449.38,-196.87 449.38,-196.87 449.38,-200.83 445.42,-204.79 441.46,-204.79"/>
<text xml:space="preserve" text-anchor="middle" x="320.62" y="-187.49" font-family="Arial" font-size="14.00" fill="#c6c5fe">../src/components/transaction&#45;history.tsx</text>
</g>
<!-- ../src/components/transaction&#45;history.tsx&#45;&gt;../src/lib/supabase.ts -->
<g id="edge11" class="edge">
<title>../src/components/transaction&#45;history.tsx&#45;&gt;../src/lib/supabase.ts</title>
<path fill="none" stroke="#757575" d="M406.38,-205.22C424.15,-208.82 442.62,-213.33 459.5,-218.91 504.29,-233.72 552.73,-258.9 583.17,-275.96"/>
<polygon fill="#757575" stroke="#757575" points="581.41,-278.98 591.83,-280.88 584.86,-272.9 581.41,-278.98"/>
</g>
<!-- ../src/components/transaction&#45;history.tsx&#45;&gt;../src/types/database.types.ts -->
<g id="edge12" class="edge">
<title>../src/components/transaction&#45;history.tsx&#45;&gt;../src/types/database.types.ts</title>
<path fill="none" stroke="#757575" d="M449.46,-198.31C534.43,-206.43 646.15,-226.05 734.25,-272.91 782.24,-298.43 825.65,-346.22 848.24,-373.81"/>
<polygon fill="#757575" stroke="#757575" points="845.4,-375.86 854.39,-381.47 850.86,-371.48 845.4,-375.86"/>
</g>
<!-- ../src/lib/export&#45;pdf.ts -->
<g id="node12" class="node">
<title>../src/lib/export&#45;pdf.ts</title>
<path fill="none" stroke="#c6c5fe" d="M383.33,-406.79C383.33,-406.79 257.92,-406.79 257.92,-406.79 253.96,-406.79 250,-402.83 250,-398.87 250,-398.87 250,-390.95 250,-390.95 250,-387 253.96,-383.04 257.92,-383.04 257.92,-383.04 383.33,-383.04 383.33,-383.04 387.29,-383.04 391.25,-387 391.25,-390.95 391.25,-390.95 391.25,-398.87 391.25,-398.87 391.25,-402.83 387.29,-406.79 383.33,-406.79"/>
<text xml:space="preserve" text-anchor="middle" x="320.62" y="-389.49" font-family="Arial" font-size="14.00" fill="#c6c5fe">../src/lib/export&#45;pdf.ts</text>
</g>
<!-- ../src/lib/export&#45;pdf.ts&#45;&gt;../src/types/database.types.ts -->
<g id="edge13" class="edge">
<title>../src/lib/export&#45;pdf.ts&#45;&gt;../src/types/database.types.ts</title>
<path fill="none" stroke="#757575" d="M391.5,-394.91C484.59,-394.91 650.13,-394.91 758.64,-394.91"/>
<polygon fill="#757575" stroke="#757575" points="758.43,-398.41 768.43,-394.91 758.43,-391.41 758.43,-398.41"/>
</g>
<!-- analisis/page.tsx -->
<g id="node13" class="node">
<title>analisis/page.tsx</title>
<path fill="none" stroke="#c6c5fe" d="M122.83,-528.79C122.83,-528.79 22.92,-528.79 22.92,-528.79 18.96,-528.79 15,-524.83 15,-520.87 15,-520.87 15,-512.95 15,-512.95 15,-509 18.96,-505.04 22.92,-505.04 22.92,-505.04 122.83,-505.04 122.83,-505.04 126.79,-505.04 130.75,-509 130.75,-512.95 130.75,-512.95 130.75,-520.87 130.75,-520.87 130.75,-524.83 126.79,-528.79 122.83,-528.79"/>
<text xml:space="preserve" text-anchor="middle" x="72.88" y="-511.49" font-family="Arial" font-size="14.00" fill="#c6c5fe">analisis/page.tsx</text>
</g>
<!-- analisis/page.tsx&#45;&gt;../src/components/dashboard&#45;stats.tsx -->
<g id="edge16" class="edge">
<title>analisis/page.tsx&#45;&gt;../src/components/dashboard&#45;stats.tsx</title>
<path fill="none" stroke="#757575" d="M131.18,-516.91C148.02,-516.91 167.18,-516.91 186.68,-516.91"/>
<polygon fill="#757575" stroke="#757575" points="186.67,-520.41 196.67,-516.91 186.67,-513.41 186.67,-520.41"/>
</g>
<!-- api/generate&#45;copy/route.ts -->
<g id="node14" class="node">
<title>api/generate&#45;copy/route.ts</title>
<path fill="none" stroke="#c6c5fe" d="M399.08,-326.79C399.08,-326.79 242.17,-326.79 242.17,-326.79 238.21,-326.79 234.25,-322.83 234.25,-318.87 234.25,-318.87 234.25,-310.95 234.25,-310.95 234.25,-307 238.21,-303.04 242.17,-303.04 242.17,-303.04 399.08,-303.04 399.08,-303.04 403.04,-303.04 407,-307 407,-310.95 407,-310.95 407,-318.87 407,-318.87 407,-322.83 403.04,-326.79 399.08,-326.79"/>
<text xml:space="preserve" text-anchor="middle" x="320.62" y="-309.49" font-family="Arial" font-size="14.00" fill="#c6c5fe">api/generate&#45;copy/route.ts</text>
</g>
<!-- api/generate&#45;copy/route.ts&#45;&gt;../src/lib/supabase.ts -->
<g id="edge17" class="edge">
<title>api/generate&#45;copy/route.ts&#45;&gt;../src/lib/supabase.ts</title>
<path fill="none" stroke="#757575" d="M407.33,-308.75C447.34,-305.88 494.69,-302.48 533.95,-299.66"/>
<polygon fill="#757575" stroke="#757575" points="534.09,-303.15 543.81,-298.95 533.59,-296.17 534.09,-303.15"/>
</g>
<!-- api/parse&#45;ledger/route.ts -->
<g id="node15" class="node">
<title>api/parse&#45;ledger/route.ts</title>
<path fill="none" stroke="#c6c5fe" d="M393.83,-284.79C393.83,-284.79 247.42,-284.79 247.42,-284.79 243.46,-284.79 239.5,-280.83 239.5,-276.87 239.5,-276.87 239.5,-268.95 239.5,-268.95 239.5,-265 243.46,-261.04 247.42,-261.04 247.42,-261.04 393.83,-261.04 393.83,-261.04 397.79,-261.04 401.75,-265 401.75,-268.95 401.75,-268.95 401.75,-276.87 401.75,-276.87 401.75,-280.83 397.79,-284.79 393.83,-284.79"/>
<text xml:space="preserve" text-anchor="middle" x="320.62" y="-267.49" font-family="Arial" font-size="14.00" fill="#c6c5fe">api/parse&#45;ledger/route.ts</text>
</g>
<!-- api/parse&#45;ledger/route.ts&#45;&gt;../src/lib/supabase.ts -->
<g id="edge18" class="edge">
<title>api/parse&#45;ledger/route.ts&#45;&gt;../src/lib/supabase.ts</title>
<path fill="none" stroke="#757575" d="M401.87,-278.68C442.96,-281.63 492.83,-285.21 533.88,-288.16"/>
<polygon fill="#757575" stroke="#757575" points="533.47,-291.64 543.7,-288.87 533.98,-284.66 533.47,-291.64"/>
</g>
<!-- api/transcribe/route.ts -->
<g id="node16" class="node">
<title>api/transcribe/route.ts</title>
<path fill="none" stroke="#cfffac" d="M137.83,-650.79C137.83,-650.79 7.92,-650.79 7.92,-650.79 3.96,-650.79 0,-646.83 0,-642.87 0,-642.87 0,-634.95 0,-634.95 0,-631 3.96,-627.04 7.92,-627.04 7.92,-627.04 137.83,-627.04 137.83,-627.04 141.79,-627.04 145.75,-631 145.75,-634.95 145.75,-634.95 145.75,-642.87 145.75,-642.87 145.75,-646.83 141.79,-650.79 137.83,-650.79"/>
<text xml:space="preserve" text-anchor="middle" x="72.88" y="-633.49" font-family="Arial" font-size="14.00" fill="#cfffac">api/transcribe/route.ts</text>
</g>
<!-- budget/page.tsx -->
<g id="node17" class="node">
<title>budget/page.tsx</title>
<path fill="none" stroke="#c6c5fe" d="M120.96,-427.79C120.96,-427.79 24.79,-427.79 24.79,-427.79 20.83,-427.79 16.88,-423.83 16.88,-419.87 16.88,-419.87 16.88,-411.95 16.88,-411.95 16.88,-408 20.83,-404.04 24.79,-404.04 24.79,-404.04 120.96,-404.04 120.96,-404.04 124.92,-404.04 128.88,-408 128.88,-411.95 128.88,-411.95 128.88,-419.87 128.88,-419.87 128.88,-423.83 124.92,-427.79 120.96,-427.79"/>
<text xml:space="preserve" text-anchor="middle" x="72.88" y="-410.49" font-family="Arial" font-size="14.00" fill="#c6c5fe">budget/page.tsx</text>
</g>
<!-- budget/page.tsx&#45;&gt;../src/components/budget&#45;target.tsx -->
<g id="edge19" class="edge">
<title>budget/page.tsx&#45;&gt;../src/components/budget&#45;target.tsx</title>
<path fill="none" stroke="#757575" d="M129.33,-420.65C148.92,-422.32 171.82,-424.28 194.8,-426.25"/>
<polygon fill="#757575" stroke="#757575" points="194.31,-429.72 204.57,-427.08 194.91,-422.74 194.31,-429.72"/>
</g>
<!-- budget/page.tsx&#45;&gt;../src/lib/supabase.ts -->
<g id="edge21" class="edge">
<title>budget/page.tsx&#45;&gt;../src/lib/supabase.ts</title>
<path fill="none" stroke="#757575" d="M100.34,-403.59C121.83,-394.07 153.15,-381.32 181.75,-373.91 302.36,-342.65 337.41,-360.76 459.5,-335.91 494.49,-328.79 533.28,-318.23 563.22,-309.48"/>
<polygon fill="#757575" stroke="#757575" points="564.18,-312.84 572.78,-306.65 562.2,-306.13 564.18,-312.84"/>
</g>
<!-- budget/page.tsx&#45;&gt;../src/types/database.types.ts -->
<g id="edge22" class="edge">
<title>budget/page.tsx&#45;&gt;../src/types/database.types.ts</title>
<path fill="none" stroke="#757575" d="M97.96,-428.28C119.33,-438.52 151.73,-452.27 181.75,-457.91 423.35,-503.29 492.64,-477.24 734.25,-431.91 762.12,-426.68 792.65,-418.17 817.16,-410.64"/>
<polygon fill="#757575" stroke="#757575" points="818.02,-414.03 826.52,-407.71 815.93,-407.35 818.02,-414.03"/>
</g>
<!-- budget/page.tsx&#45;&gt;../src/lib/export&#45;pdf.ts -->
<g id="edge20" class="edge">
<title>budget/page.tsx&#45;&gt;../src/lib/export&#45;pdf.ts</title>
<path fill="none" stroke="#757575" d="M129.33,-411.17C161.52,-408.42 202.65,-404.91 238.44,-401.85"/>
<polygon fill="#757575" stroke="#757575" points="238.67,-405.34 248.34,-401 238.08,-398.37 238.67,-405.34"/>
</g>
<!-- globals.css -->
<g id="node18" class="node">
<title>globals.css</title>
<path fill="none" stroke="#cfffac" d="M354.08,-40.79C354.08,-40.79 287.17,-40.79 287.17,-40.79 283.21,-40.79 279.25,-36.83 279.25,-32.87 279.25,-32.87 279.25,-24.95 279.25,-24.95 279.25,-21 283.21,-17.04 287.17,-17.04 287.17,-17.04 354.08,-17.04 354.08,-17.04 358.04,-17.04 362,-21 362,-24.95 362,-24.95 362,-32.87 362,-32.87 362,-36.83 358.04,-40.79 354.08,-40.79"/>
<text xml:space="preserve" text-anchor="middle" x="320.62" y="-23.49" font-family="Arial" font-size="14.00" fill="#cfffac">globals.css</text>
</g>
<!-- layout.tsx -->
<g id="node19" class="node">
<title>layout.tsx</title>
<path fill="none" stroke="#c6c5fe" d="M101.46,-40.79C101.46,-40.79 44.29,-40.79 44.29,-40.79 40.33,-40.79 36.38,-36.83 36.38,-32.87 36.38,-32.87 36.38,-24.95 36.38,-24.95 36.38,-21 40.33,-17.04 44.29,-17.04 44.29,-17.04 101.46,-17.04 101.46,-17.04 105.42,-17.04 109.38,-21 109.38,-24.95 109.38,-24.95 109.38,-32.87 109.38,-32.87 109.38,-36.83 105.42,-40.79 101.46,-40.79"/>
<text xml:space="preserve" text-anchor="middle" x="72.88" y="-23.49" font-family="Arial" font-size="14.00" fill="#c6c5fe">layout.tsx</text>
</g>
<!-- layout.tsx&#45;&gt;../src/components/navbar.tsx -->
<g id="edge23" class="edge">
<title>layout.tsx&#45;&gt;../src/components/navbar.tsx</title>
<path fill="none" stroke="#757575" d="M109.77,-36.28C130.72,-40.49 157.69,-45.74 181.75,-49.91 195.3,-52.26 209.63,-54.6 223.72,-56.82"/>
<polygon fill="#757575" stroke="#757575" points="223.04,-60.26 233.46,-58.34 224.12,-53.34 223.04,-60.26"/>
</g>
<!-- layout.tsx&#45;&gt;../src/components/theme&#45;provider.tsx -->
<g id="edge24" class="edge">
<title>layout.tsx&#45;&gt;../src/components/theme&#45;provider.tsx</title>
<path fill="none" stroke="#757575" d="M109.58,-20.17C130.47,-15.51 157.44,-10.26 181.75,-7.91 304.62,3.94 336.36,0.82 459.5,-7.91 482.82,-9.57 507.98,-12.61 531.08,-15.91"/>
<polygon fill="#757575" stroke="#757575" points="530.34,-19.34 540.74,-17.33 531.35,-12.42 530.34,-19.34"/>
</g>
<!-- layout.tsx&#45;&gt;globals.css -->
<g id="edge25" class="edge">
<title>layout.tsx&#45;&gt;globals.css</title>
<path fill="none" stroke="#757575" d="M109.87,-28.91C151.5,-28.91 220.37,-28.91 267.77,-28.91"/>
<polygon fill="#757575" stroke="#757575" points="267.51,-32.41 277.51,-28.91 267.51,-25.41 267.51,-32.41"/>
</g>
<!-- marketing/page.tsx -->
<g id="node20" class="node">
<title>marketing/page.tsx</title>
<path fill="none" stroke="#cfffac" d="M130.33,-692.79C130.33,-692.79 15.42,-692.79 15.42,-692.79 11.46,-692.79 7.5,-688.83 7.5,-684.87 7.5,-684.87 7.5,-676.95 7.5,-676.95 7.5,-673 11.46,-669.04 15.42,-669.04 15.42,-669.04 130.33,-669.04 130.33,-669.04 134.29,-669.04 138.25,-673 138.25,-676.95 138.25,-676.95 138.25,-684.87 138.25,-684.87 138.25,-688.83 134.29,-692.79 130.33,-692.79"/>
<text xml:space="preserve" text-anchor="middle" x="72.88" y="-675.49" font-family="Arial" font-size="14.00" fill="#cfffac">marketing/page.tsx</text>
</g>
<!-- page.tsx -->
<g id="node21" class="node">
<title>page.tsx</title>
<path fill="none" stroke="#c6c5fe" d="M98.46,-608.79C98.46,-608.79 47.29,-608.79 47.29,-608.79 43.33,-608.79 39.38,-604.83 39.38,-600.87 39.38,-600.87 39.38,-592.95 39.38,-592.95 39.38,-589 43.33,-585.04 47.29,-585.04 47.29,-585.04 98.46,-585.04 98.46,-585.04 102.42,-585.04 106.38,-589 106.38,-592.95 106.38,-592.95 106.38,-600.87 106.38,-600.87 106.38,-604.83 102.42,-608.79 98.46,-608.79"/>
<text xml:space="preserve" text-anchor="middle" x="72.88" y="-591.49" font-family="Arial" font-size="14.00" fill="#c6c5fe">page.tsx</text>
</g>
<!-- page.tsx&#45;&gt;../src/components/home&#45;dashboard.tsx -->
<g id="edge26" class="edge">
<title>page.tsx&#45;&gt;../src/components/home&#45;dashboard.tsx</title>
<path fill="none" stroke="#757575" d="M106.76,-596.91C127.14,-596.91 154.83,-596.91 183.5,-596.91"/>
<polygon fill="#757575" stroke="#757575" points="183.43,-600.41 193.43,-596.91 183.43,-593.41 183.43,-600.41"/>
</g>
<!-- riwayat/page.tsx -->
<g id="node22" class="node">
<title>riwayat/page.tsx</title>
<path fill="none" stroke="#c6c5fe" d="M121.71,-204.79C121.71,-204.79 24.04,-204.79 24.04,-204.79 20.08,-204.79 16.12,-200.83 16.12,-196.87 16.12,-196.87 16.12,-188.95 16.12,-188.95 16.12,-185 20.08,-181.04 24.04,-181.04 24.04,-181.04 121.71,-181.04 121.71,-181.04 125.67,-181.04 129.62,-185 129.62,-188.95 129.62,-188.95 129.62,-196.87 129.62,-196.87 129.62,-200.83 125.67,-204.79 121.71,-204.79"/>
<text xml:space="preserve" text-anchor="middle" x="72.88" y="-187.49" font-family="Arial" font-size="14.00" fill="#c6c5fe">riwayat/page.tsx</text>
</g>
<!-- riwayat/page.tsx&#45;&gt;../src/lib/supabase.ts -->
<g id="edge30" class="edge">
<title>riwayat/page.tsx&#45;&gt;../src/lib/supabase.ts</title>
<path fill="none" stroke="#757575" d="M130.03,-204.47C146.65,-207.72 164.9,-211.12 181.75,-213.91 304.67,-234.27 337.41,-227.06 459.5,-251.91 494.49,-259.03 533.28,-269.6 563.22,-278.35"/>
<polygon fill="#757575" stroke="#757575" points="562.2,-281.7 572.78,-281.17 564.18,-274.98 562.2,-281.7"/>
</g>
<!-- riwayat/page.tsx&#45;&gt;../src/types/database.types.ts -->
<g id="edge31" class="edge">
<title>riwayat/page.tsx&#45;&gt;../src/types/database.types.ts</title>
<path fill="none" stroke="#757575" d="M88.78,-180.7C108.58,-165.33 145.32,-139.77 181.75,-129.91 300.27,-97.84 630.43,-70.36 734.25,-135.91 819.77,-189.9 851.35,-318.65 860.99,-371.58"/>
<polygon fill="#757575" stroke="#757575" points="857.51,-372.01 862.65,-381.28 864.41,-370.83 857.51,-372.01"/>
</g>
<!-- riwayat/page.tsx&#45;&gt;../src/components/category&#45;visualization.tsx -->
<g id="edge27" class="edge">
<title>riwayat/page.tsx&#45;&gt;../src/components/category&#45;visualization.tsx</title>
<path fill="none" stroke="#757575" d="M130.06,-181.52C146.68,-178.27 164.92,-174.83 181.75,-171.91 195.3,-169.56 209.63,-167.22 223.72,-165"/>
<polygon fill="#757575" stroke="#757575" points="224.12,-168.48 233.46,-163.48 223.04,-161.56 224.12,-168.48"/>
</g>
<!-- riwayat/page.tsx&#45;&gt;../src/components/transaction&#45;history.tsx -->
<g id="edge28" class="edge">
<title>riwayat/page.tsx&#45;&gt;../src/components/transaction&#45;history.tsx</title>
<path fill="none" stroke="#757575" d="M129.95,-192.91C145.24,-192.91 162.52,-192.91 180.27,-192.91"/>
<polygon fill="#757575" stroke="#757575" points="180.16,-196.41 190.16,-192.91 180.16,-189.41 180.16,-196.41"/>
</g>
<!-- riwayat/page.tsx&#45;&gt;../src/lib/export&#45;pdf.ts -->
<g id="edge29" class="edge">
<title>riwayat/page.tsx&#45;&gt;../src/lib/export&#45;pdf.ts</title>
<path fill="none" stroke="#757575" d="M80.07,-204.94C94.49,-231.85 132.78,-297.56 181.75,-335.91 206.25,-355.1 237.93,-369.23 264.74,-378.85"/>
<polygon fill="#757575" stroke="#757575" points="263.49,-382.12 274.09,-382.07 265.78,-375.5 263.49,-382.12"/>
</g>
</g>
</svg>
